<svg width="16" height="16" viewBox="0 0 16 16" fill="none" xmlns="http://www.w3.org/2000/svg">
<g id="icon/more-horizontal">
<path id="Vector" d="M8.00001 8.66668C8.3682 8.66668 8.66668 8.3682 8.66668 8.00001C8.66668 7.63182 8.3682 7.33334 8.00001 7.33334C7.63182 7.33334 7.33334 7.63182 7.33334 8.00001C7.33334 8.3682 7.63182 8.66668 8.00001 8.66668Z" stroke="#262626" stroke-width="1.33" stroke-linecap="round" stroke-linejoin="round"/>
<path id="Vector_2" d="M12.6667 8.66668C13.0349 8.66668 13.3333 8.3682 13.3333 8.00001C13.3333 7.63182 13.0349 7.33334 12.6667 7.33334C12.2985 7.33334 12 7.63182 12 8.00001C12 8.3682 12.2985 8.66668 12.6667 8.66668Z" stroke="#262626" stroke-width="1.33" stroke-linecap="round" stroke-linejoin="round"/>
<path id="Vector_3" d="M3.33332 8.66668C3.70151 8.66668 3.99999 8.3682 3.99999 8.00001C3.99999 7.63182 3.70151 7.33334 3.33332 7.33334C2.96513 7.33334 2.66666 7.63182 2.66666 8.00001C2.66666 8.3682 2.96513 8.66668 3.33332 8.66668Z" stroke="#262626" stroke-width="1.33" stroke-linecap="round" stroke-linejoin="round"/>
</g>
</svg>
