<svg width="16" height="16" viewBox="0 0 16 16" fill="none" xmlns="http://www.w3.org/2000/svg">
<g id="icon/more-horizontal">
<path id="Vector" d="M8.00001 8.66667C8.3682 8.66667 8.66668 8.36819 8.66668 8C8.66668 7.63181 8.3682 7.33333 8.00001 7.33333C7.63182 7.33333 7.33334 7.63181 7.33334 8C7.33334 8.36819 7.63182 8.66667 8.00001 8.66667Z" stroke="#F1F5F9" stroke-width="1.33333" stroke-linecap="round" stroke-linejoin="round"/>
<path id="Vector_2" d="M12.6667 8.66667C13.0349 8.66667 13.3333 8.36819 13.3333 8C13.3333 7.63181 13.0349 7.33333 12.6667 7.33333C12.2985 7.33333 12 7.63181 12 8C12 8.36819 12.2985 8.66667 12.6667 8.66667Z" stroke="#F1F5F9" stroke-width="1.33333" stroke-linecap="round" stroke-linejoin="round"/>
<path id="Vector_3" d="M3.33332 8.66667C3.70151 8.66667 3.99999 8.36819 3.99999 8C3.99999 7.63181 3.70151 7.33333 3.33332 7.33333C2.96513 7.33333 2.66666 7.63181 2.66666 8C2.66666 8.36819 2.96513 8.66667 3.33332 8.66667Z" stroke="#F1F5F9" stroke-width="1.33333" stroke-linecap="round" stroke-linejoin="round"/>
</g>
</svg>
