<svg width="17" height="16" viewBox="0 0 17 16" fill="none" xmlns="http://www.w3.org/2000/svg">
<g id="icon/settings">
<path id="Vector" d="M8.64667 1.33333H8.35333C7.99971 1.33333 7.66057 1.47381 7.41053 1.72386C7.16048 1.9739 7.02 2.31304 7.02 2.66667V2.78667C7.01976 3.02048 6.95804 3.25013 6.84103 3.45256C6.72401 3.65499 6.55583 3.82309 6.35333 3.94L6.06667 4.10667C5.86398 4.22369 5.63405 4.2853 5.4 4.2853C5.16595 4.2853 4.93603 4.22369 4.73333 4.10667L4.63333 4.05333C4.32738 3.87684 3.96389 3.82896 3.62267 3.9202C3.28145 4.01145 2.99037 4.23436 2.81333 4.54L2.66667 4.79333C2.49018 5.09929 2.4423 5.46277 2.53354 5.804C2.62478 6.14522 2.84769 6.4363 3.15333 6.61333L3.25333 6.68C3.45485 6.79634 3.62241 6.96339 3.73937 7.16455C3.85632 7.36571 3.9186 7.59398 3.92 7.82667V8.16667C3.92093 8.40161 3.85977 8.63263 3.7427 8.83634C3.62563 9.04004 3.45681 9.20919 3.25333 9.32667L3.15333 9.38667C2.84769 9.5637 2.62478 9.85478 2.53354 10.196C2.4423 10.5372 2.49018 10.9007 2.66667 11.2067L2.81333 11.46C2.99037 11.7656 3.28145 11.9886 3.62267 12.0798C3.96389 12.171 4.32738 12.1232 4.63333 11.9467L4.73333 11.8933C4.93603 11.7763 5.16595 11.7147 5.4 11.7147C5.63405 11.7147 5.86398 11.7763 6.06667 11.8933L6.35333 12.06C6.55583 12.1769 6.72401 12.345 6.84103 12.5474C6.95804 12.7499 7.01976 12.9795 7.02 13.2133V13.3333C7.02 13.687 7.16048 14.0261 7.41053 14.2761C7.66057 14.5262 7.99971 14.6667 8.35333 14.6667H8.64667C9.00029 14.6667 9.33943 14.5262 9.58948 14.2761C9.83952 14.0261 9.98 13.687 9.98 13.3333V13.2133C9.98024 12.9795 10.042 12.7499 10.159 12.5474C10.276 12.345 10.4442 12.1769 10.6467 12.06L10.9333 11.8933C11.136 11.7763 11.366 11.7147 11.6 11.7147C11.834 11.7147 12.064 11.7763 12.2667 11.8933L12.3667 11.9467C12.6726 12.1232 13.0361 12.171 13.3773 12.0798C13.7186 11.9886 14.0096 11.7656 14.1867 11.46L14.3333 11.2C14.5098 10.894 14.5577 10.5306 14.4665 10.1893C14.3752 9.84811 14.1523 9.55703 13.8467 9.38L13.7467 9.32667C13.5432 9.20919 13.3744 9.04004 13.2573 8.83634C13.1402 8.63263 13.0791 8.40161 13.08 8.16667V7.83333C13.0791 7.59839 13.1402 7.36736 13.2573 7.16366C13.3744 6.95996 13.5432 6.7908 13.7467 6.67333L13.8467 6.61333C14.1523 6.4363 14.3752 6.14522 14.4665 5.804C14.5577 5.46277 14.5098 5.09929 14.3333 4.79333L14.1867 4.54C14.0096 4.23436 13.7186 4.01145 13.3773 3.9202C13.0361 3.82896 12.6726 3.87684 12.3667 4.05333L12.2667 4.10667C12.064 4.22369 11.834 4.2853 11.6 4.2853C11.366 4.2853 11.136 4.22369 10.9333 4.10667L10.6467 3.94C10.4442 3.82309 10.276 3.65499 10.159 3.45256C10.042 3.25013 9.98024 3.02048 9.98 2.78667V2.66667C9.98 2.31304 9.83952 1.9739 9.58948 1.72386C9.33943 1.47381 9.00029 1.33333 8.64667 1.33333Z" stroke="#262626" stroke-width="2" stroke-linecap="round" stroke-linejoin="round"/>
<path id="Vector_2" d="M8.5 10C9.60457 10 10.5 9.10457 10.5 8C10.5 6.89543 9.60457 6 8.5 6C7.39543 6 6.5 6.89543 6.5 8C6.5 9.10457 7.39543 10 8.5 10Z" stroke="#262626" stroke-width="2" stroke-linecap="round" stroke-linejoin="round"/>
</g>
</svg>
